<?xml version="1.0" encoding="UTF-8" standalone="no"?>
<svg
   xmlns:dc="http://purl.org/dc/elements/1.1/"
   xmlns:cc="http://creativecommons.org/ns#"
   xmlns:rdf="http://www.w3.org/1999/02/22-rdf-syntax-ns#"
   xmlns:svg="http://www.w3.org/2000/svg"
   xmlns="http://www.w3.org/2000/svg"
   xmlns:sodipodi="http://sodipodi.sourceforge.net/DTD/sodipodi-0.dtd"
   xmlns:inkscape="http://www.inkscape.org/namespaces/inkscape"
   sodipodi:docname="knifeForkLogo.svg"
   inkscape:version="1.0rc1 (09960d6, 2020-04-09)"
   id="svg849"
   version="1.1"
   viewBox="0 0 92.604164 52.91667"
   height="200"
   width="350">
  <defs
     id="defs843" />
  <sodipodi:namedview
     inkscape:window-maximized="0"
     inkscape:window-y="23"
     inkscape:window-x="0"
     inkscape:window-height="985"
     inkscape:window-width="1252"
     inkscape:pagecheckerboard="true"
     units="px"
     showgrid="false"
     inkscape:document-rotation="0"
     inkscape:current-layer="layer1"
     inkscape:document-units="px"
     inkscape:cy="215.11803"
     inkscape:cx="238.57027"
     inkscape:zoom="1.1556814"
     inkscape:pageshadow="2"
     inkscape:pageopacity="0.0"
     borderopacity="1.0"
     bordercolor="#666666"
     pagecolor="#ffffff"
     id="base" />
  <metadata
     id="metadata846">
    <rdf:RDF>
      <cc:Work
         rdf:about="">
        <dc:format>image/svg+xml</dc:format>
        <dc:type
           rdf:resource="http://purl.org/dc/dcmitype/StillImage" />
        <dc:title></dc:title>
      </cc:Work>
    </rdf:RDF>
  </metadata>
  <g
     id="layer1"
     inkscape:groupmode="layer"
     inkscape:label="Layer 1">
    <path
       inkscape:transform-center-y="2.0604728"
       inkscape:transform-center-x="0.91417178"
       inkscape:export-ydpi="9.1899996"
       inkscape:export-xdpi="9.1899996"
       inkscape:connector-curvature="0"
       id="path1185-1"
       style="opacity:0.999;fill:#ffffff;fill-opacity:1;fill-rule:nonzero;stroke:none;stroke-width:0.35278"
       d="m 65.180666,23.543218 c -0.656839,-0.642509 -2.511375,-2.032313 -6.085081,-1.821247 0,0 2.468288,-0.477342 5.298554,0.806411 0.391676,0.179057 1.270019,0.647959 1.922063,0.440589 0.720381,-0.229407 1.903897,-0.758986 4.740421,-2.055056 -2.456741,1.302454 -4.43951,2.349723 -5.199182,2.740441 -0.254384,0.129889 -0.4836,0.07604 -0.676775,-0.111138 M 9.8898263,39.581746 c 1.6107037,-0.548285 2.1746287,-0.601432 2.1746287,-0.601432 0,0 -2.6469893,0.910256 -3.8451417,1.772634 -1.0461811,0.705461 -2.0565666,1.663867 -3.229491,3.874931 0.7292605,-2.773846 2.9998644,-4.393417 4.900004,-5.046133 M 65.805159,24.066881 C 68.498155,22.688341 86.777543,13.14437 86.777543,13.14437 l -0.01474,-0.09645 -0.06786,-0.06485 -17.929998,6.891446 c 0,0 -0.280072,0.114009 -0.408728,-0.134914 -0.128675,-0.249999 0.145497,-0.374695 0.145497,-0.374695 l 17.020114,-8.631716 -0.0035,-0.102989 -0.08186,-0.07229 -17.944407,6.835775 c 0,0 -0.28235,0.118324 -0.40272,-0.111358 -0.116882,-0.22864 0.158361,-0.36408 0.158361,-0.36408 l 17.034367,-8.5932015 -0.01016,-0.099714 -0.07839,-0.074414 -17.965584,6.8037645 c 0,0 -0.281252,0.110802 -0.404066,-0.133882 -0.126278,-0.241435 0.139633,-0.382157 0.139633,-0.382157 l 17.077661,-8.5463645 -0.01357,-0.093242 -0.07024,-0.068046 c 0,0 -19.521242,7.1294269 -22.377049,8.2024519 -0.268589,0.09889 -0.365635,0.296109 -0.332123,0.554448 0.125783,0.875649 0.0077,3.13664 -2.414032,5.569863 -2.459895,2.5913 -40.252071,16.252396 -48.5057483,19.081392 -2.0506743,0.703385 -4.473112,2.635457 -4.9840674,5.823792 2.9969434,1.636442 6.1429977,1.110353 8.0260297,0.07896 7.572566,-4.149489 42.832761,-22.719747 46.558055,-22.856997 3.570224,-0.211031 5.541645,1.130552 6.199627,1.770902 0.192032,0.189354 0.420076,0.242122 0.676777,0.111138"
       inkscape:export-filename="/Users/kennynguyen/Desktop/knifeForkLogo.png" />
    <path
       inkscape:transform-center-y="2.7777051"
       inkscape:transform-center-x="-0.21285809"
       inkscape:export-ydpi="9.1899996"
       inkscape:export-xdpi="9.1899996"
       inkscape:connector-curvature="0"
       id="path1189-4"
       style="opacity:0.999;fill:#ffffff;fill-opacity:1;fill-rule:nonzero;stroke:none;stroke-width:0.35278"
       d="m 86.489895,43.415556 c -1.207486,-2.193785 -2.233781,-3.134649 -3.292781,-3.821978 -1.210083,-0.839488 -3.873109,-1.705089 -3.873109,-1.705089 0,0 0.56591,0.04446 2.180908,0.564992 1.913125,0.619879 4.210513,2.199026 4.984982,4.962075 M 44.293468,27.444036 c -0.234071,0.47526 -0.834157,0.369893 -1.043919,0.281556 0,0 0.395907,-0.14828 0.583163,-0.527627 l 1.253824,-2.534764 c 0.156424,-0.318992 0.632034,-0.102023 0.476742,0.212659 z M 9.5414732,14.067578 c 0,0 -0.4176289,-0.227126 -1.1622643,-1.092081 C 6.5299381,10.828025 6.2597509,9.3483791 7.0382794,8.7139056 6.5806032,9.528047 6.9606134,10.533501 7.5470864,11.509282 c 0.8031877,1.338763 1.9943868,2.558296 1.9943868,2.558296 M 82.147482,38.085226 C 77.896269,36.711771 60.791644,30.535232 45.132295,24.163811 29.845832,16.420952 11.994031,10.046951 9.2840178,8.6999277 6.3688042,7.2559377 4.8114005,9.3157851 7.6220561,12.833927 12.2564,18.636049 30.858032,27.882757 42.673184,27.956991 c 0.263877,0.03313 0.379978,0.02997 0.624239,0.07725 5.114494,1.015116 28.617471,12.168391 35.909721,16.006349 1.896547,0.99776 5.053288,1.470644 8.022394,-0.217188 l 0.0027,-0.0041 c -0.56777,-3.176871 -3.021051,-5.06589 -5.084367,-5.733841"
       inkscape:export-filename="/Users/kennynguyen/Desktop/knifeForkLogo.png" />
  </g>
</svg>
