<?xml version="1.0" encoding="UTF-8" standalone="no"?>
<svg
   xmlns:osb="http://www.openswatchbook.org/uri/2009/osb"
   xmlns:dc="http://purl.org/dc/elements/1.1/"
   xmlns:cc="http://creativecommons.org/ns#"
   xmlns:rdf="http://www.w3.org/1999/02/22-rdf-syntax-ns#"
   xmlns:svg="http://www.w3.org/2000/svg"
   xmlns="http://www.w3.org/2000/svg"
   xmlns:sodipodi="http://sodipodi.sourceforge.net/DTD/sodipodi-0.dtd"
   xmlns:inkscape="http://www.inkscape.org/namespaces/inkscape"
   inkscape:export-ydpi="96.389992"
   inkscape:export-xdpi="96.389992"
   inkscape:export-filename="/Users/kennynguyen/Desktop/cookware.png"
   version="1.1"
   id="svg833"
   xml:space="preserve"
   width="600"
   height="600"
   viewBox="0 0 599.99997 599.99997"
   sodipodi:docname="cookware.svg"
   inkscape:version="1.0rc1 (09960d6, 2020-04-09)"><metadata
     id="metadata839"><rdf:RDF><cc:Work
         rdf:about=""><dc:format>image/svg+xml</dc:format><dc:type
           rdf:resource="http://purl.org/dc/dcmitype/StillImage" /><dc:title></dc:title></cc:Work></rdf:RDF></metadata><defs
     id="defs837"><linearGradient
       osb:paint="solid"
       id="linearGradient3070"><stop
         id="stop3068"
         offset="0"
         style="stop-color:#ffffff;stop-opacity:1;" /></linearGradient></defs><sodipodi:namedview
     inkscape:pagecheckerboard="true"
     inkscape:document-rotation="0"
     pagecolor="#ffffff"
     bordercolor="#666666"
     borderopacity="1"
     objecttolerance="10"
     gridtolerance="10"
     guidetolerance="10"
     inkscape:pageopacity="0"
     inkscape:pageshadow="2"
     inkscape:window-width="1788"
     inkscape:window-height="955"
     id="namedview835"
     showgrid="false"
     inkscape:zoom="0.68906245"
     inkscape:cx="12.823763"
     inkscape:cy="232.74369"
     inkscape:window-x="0"
     inkscape:window-y="23"
     inkscape:window-maximized="0"
     inkscape:current-layer="layer3" /><g
     inkscape:groupmode="layer"
     id="layer3"
     inkscape:label="logo"><path
       inkscape:export-ydpi="96.389992"
       inkscape:export-xdpi="96.389992"
       inkscape:connector-curvature="0"
       id="path1185-1"
       style="opacity:0.999;fill:#ffffff;fill-opacity:1;fill-rule:nonzero;stroke:none;stroke-width:1.33334"
       d="m 382.04657,448.5721 c -2.48254,-2.42838 -9.49181,-7.68118 -22.99873,-6.88345 0,0 9.32896,-1.80413 20.02603,3.04785 1.48035,0.67675 4.80007,2.44898 7.26449,1.66522 2.7227,-0.86705 7.19583,-2.86861 17.91655,-7.76714 -9.28532,4.92266 -16.77925,8.88084 -19.65045,10.35757 -0.96145,0.49092 -1.82778,0.28738 -2.55789,-0.42005 m -208.97325,60.61806 c 6.0877,-2.07226 8.21907,-2.27313 8.21907,-2.27313 0,0 -10.00437,3.44034 -14.53282,6.69972 -3.95407,2.66631 -7.77285,6.28863 -12.20595,14.64541 2.75626,-10.48383 11.33807,-16.60504 18.5197,-19.072 M 384.40686,450.5513 c 10.17825,-5.21023 79.2657,-41.28193 79.2657,-41.28193 l -0.0557,-0.36455 -0.2565,-0.2451 -67.76692,26.04641 c 0,0 -1.05854,0.4309 -1.5448,-0.50991 -0.48633,-0.94488 0.54991,-1.41617 0.54991,-1.41617 l 64.32799,-32.62381 -0.0134,-0.38925 -0.30941,-0.27323 -67.82138,25.836 c 0,0 -1.06715,0.44721 -1.52209,-0.42088 -0.44176,-0.86415 0.59853,-1.37605 0.59853,-1.37605 l 64.38186,-32.47824 -0.0384,-0.37687 -0.29629,-0.28125 -67.90142,25.71501 c 0,0 -1.063,0.41878 -1.52718,-0.50601 -0.47727,-0.91251 0.52775,-1.44437 0.52775,-1.44437 l 64.5457,-32.3012 -0.0513,-0.35241 -0.26549,-0.25718 c 0,0 -73.78107,26.94586 -84.57467,31.00139 -1.01514,0.37376 -1.38193,1.11915 -1.25527,2.09555 0.4754,3.30954 0.0292,11.85502 -9.1239,21.05145 -9.29724,9.79389 -152.13381,61.42638 -183.32881,72.11865 -7.75058,2.65846 -16.90625,9.96078 -18.83742,22.01118 11.32703,6.18498 23.21763,4.19661 30.3346,0.29843 28.62072,-15.68311 161.8876,-85.86991 175.96745,-86.38865 13.49376,-0.7976 20.9448,4.27295 23.43166,6.69317 0.72579,0.71567 1.58769,0.91511 2.5579,0.42005" /><path
       inkscape:export-ydpi="96.389992"
       inkscape:export-xdpi="96.389992"
       inkscape:connector-curvature="0"
       id="path1189-4"
       style="opacity:0.999;fill:#ffffff;fill-opacity:1;fill-rule:nonzero;stroke:none;stroke-width:1.33334"
       d="m 462.58539,523.68015 c -4.56373,-8.29147 -8.44264,-11.84749 -12.44516,-14.44527 -4.57354,-3.17287 -14.63852,-6.44443 -14.63852,-6.44443 0,0 2.13887,0.16805 8.2428,2.1354 7.23071,2.34285 15.91375,8.31128 18.84088,18.7543 m -159.48256,-60.3648 c -0.88468,1.79626 -3.15272,1.39802 -3.94552,1.06415 0,0 1.49634,-0.56043 2.20408,-1.99418 l 4.73886,-9.58021 c 0.59121,-1.20564 2.38879,-0.3856 1.80186,0.80375 z M 171.75671,412.75866 c 0,0 -1.57844,-0.85843 -4.39281,-4.12755 -6.98937,-8.11643 -8.01055,-13.70879 -5.06808,-16.1068 -1.7298,3.07707 -0.29354,6.87721 1.92305,10.5652 3.03567,5.05989 7.53784,9.66915 7.53784,9.66915 m 274.41641,90.77536 C 430.10554,498.34301 365.45814,474.99861 306.2732,450.91765 248.49759,421.6533 181.02622,397.56259 170.78365,392.47148 c -11.01813,-5.4576 -16.90438,2.32765 -6.28143,15.62456 17.51563,21.92928 87.82101,56.87747 132.4767,57.15804 0.99733,0.12523 1.43614,0.11326 2.35933,0.29195 19.33037,3.83666 108.16052,45.99077 135.72178,60.49644 7.16805,3.77106 19.09904,5.55834 30.32086,-0.82087 l 0.0101,-0.0154 c -2.1458,-12.00715 -11.41804,-19.14675 -19.2164,-21.67129" /><path
       inkscape:export-ydpi="96.389992"
       inkscape:export-xdpi="96.389992"
       inkscape:connector-curvature="0"
       id="path1193-7"
       style="opacity:0.999;fill:#ffffff;fill-opacity:1;fill-rule:nonzero;stroke:none;stroke-width:1.33334"
       d="M 420.82796,97.524453 C 404.44074,97.665596 389.21867,102.24597 376.4501,109.97694 358.25615,93.001668 332.94972,82.564854 305.03354,82.805295 277.0998,83.045887 251.97625,93.917051 234.06918,111.20326 221.17299,103.69334 205.88516,99.375744 189.49357,99.516925 c -45.48392,0.39175 -82.07637,34.784295 -81.72429,76.828455 0.3519,42.02386 37.51507,75.78522 82.99899,75.39347 4.16485,-0.0359 8.25704,-0.35918 12.24605,-0.9491 l 0.76403,91.23826 206.83257,-1.78145 -0.76403,-91.23826 c 3.99831,0.52122 8.09534,0.77391 12.25578,0.73809 45.47953,-0.39173 82.06758,-34.78829 81.71568,-76.81215 -0.35208,-42.04417 -37.51086,-75.801499 -82.99039,-75.409787" /></g></svg>
